<?xml version="1.0" encoding="UTF-8"?>
<svg width="22px" height="25px" viewBox="0 0 22 25" version="1.1" xmlns="http://www.w3.org/2000/svg" xmlns:xlink="http://www.w3.org/1999/xlink">
    <title>Shape</title>
    <g id="Page-1" stroke="none" stroke-width="1" fill="none" fill-rule="evenodd">
        <g id="Homepage--Your-Items" transform="translate(-344.000000, -841.000000)" fill="#3A3939" fill-rule="nonzero">
            <g id="Bottom-Nav-Copy" transform="translate(0.000000, 820.000000)">
                <g id="Bottom-Nav" transform="translate(24.000000, 8.000000)">
                    <g id="Group-6" transform="translate(300.000000, 0.000000)">
                        <g id="Group-2" transform="translate(1.000000, 13.000000)">
                            <path d="M30.3170498,13.7096774 C33.9808429,13.5483871 36.9118774,10.5241935 36.9118774,6.85483871 C36.9118774,3.06451613 33.8180077,0 29.9913793,0 C26.164751,0 23.0708812,3.06451613 23.0708812,6.85483871 C23.0708812,10.5241935 26.0019157,13.5080645 29.6657088,13.7096774 C23.6408046,13.9112903 19,18.6693548 19,25 L20.6283525,25 C20.6283525,19.3548387 24.6585249,15.3225806 29.9913793,15.3225806 C35.3242337,15.3225806 39.3544061,19.3548387 39.3544061,25 L40.9827586,25 C40.9827586,18.6693548 36.341954,13.9112903 30.3170498,13.7096774 Z M24.6992337,6.89516129 C24.6992337,3.99193548 27.0603448,1.65322581 29.9913793,1.65322581 C32.9224138,1.65322581 35.2835249,3.99193548 35.2835249,6.89516129 C35.2835249,9.7983871 32.9224138,12.1370968 29.9913793,12.1370968 C27.0603448,12.1370968 24.6992337,9.75806452 24.6992337,6.89516129 Z" id="Shape"></path>
                        </g>
                    </g>
                </g>
            </g>
        </g>
    </g>
</svg>