<?xml version="1.0" encoding="UTF-8"?>
<svg width="26px" height="25px" viewBox="0 0 26 25" version="1.1" xmlns="http://www.w3.org/2000/svg" xmlns:xlink="http://www.w3.org/1999/xlink">
    <title>Shape</title>
    <g id="Page-1" stroke="none" stroke-width="1" fill="none" fill-rule="evenodd">
        <g id="Account-page" transform="translate(-41.000000, -838.000000)" fill="#2A2A2A" fill-rule="nonzero">
            <g id="Bottom-Nav-Copy" transform="translate(0.000000, 820.000000)">
                <g id="Bottom-Nav" transform="translate(24.000000, 8.000000)">
                    <g id="Home-Icon" transform="translate(0.000000, 1.000000)">
                        <g transform="translate(7.000000, 9.000000)" id="Shape">
                            <g transform="translate(10.000000, 0.000000)">
                                <path d="M22.1695022,11.8576779 L22.1695022,23.0486891 C22.1695022,23.9250936 21.4559146,24.6666667 20.6125838,24.6666667 L16.4608013,24.6666667 C15.6174705,24.6666667 14.9038828,23.9250936 14.9038828,23.0486891 L14.9038828,18.2621723 C14.9038828,18.1273408 14.7741396,17.9925094 14.6443964,17.9925094 L11.6603028,17.9925094 C11.5305596,17.9925094 11.4008164,18.1273408 11.4008164,18.2621723 L11.4008164,23.0486891 C11.4008164,23.9250936 10.6872287,24.6666667 9.84389792,24.6666667 L5.56237222,24.6666667 C4.7190414,24.6666667 4.00545378,23.9250936 4.00545378,23.0486891 L4.00545378,11.8576779 C4.00545378,11.4531835 4.26494018,11.1835206 4.65416979,11.1835206 C5.0433994,11.1835206 5.30288581,11.4531835 5.30288581,11.8576779 L5.30288581,23.0486891 C5.30288581,23.1835206 5.43262901,23.3183521 5.56237222,23.3183521 L9.84389792,23.3183521 C9.97364112,23.3183521 10.1033843,23.1835206 10.1033843,23.0486891 L10.1033843,18.2621723 C10.1033843,17.3857678 10.8169719,16.6441948 11.6603028,16.6441948 L14.6443964,16.6441948 C15.4877273,16.6441948 16.2013149,17.3857678 16.2013149,18.2621723 L16.2013149,23.0486891 C16.2013149,23.1835206 16.3310581,23.3183521 16.4608013,23.3183521 L20.6125838,23.3183521 C20.742327,23.3183521 20.8720702,23.1835206 20.8720702,23.0486891 L20.8720702,11.8576779 C20.8720702,11.4531835 21.1315566,11.1835206 21.5207862,11.1835206 C21.9100158,11.1835206 22.1695022,11.5205993 22.1695022,11.8576779 Z M25.7374403,10.6441948 L13.3469644,0.868913858 C12.9577348,0.599250936 12.5036336,0.599250936 12.114404,0.868913858 L0.242900889,10.7116105 C-0.0165855172,10.9138577 -0.0814571188,11.3857678 0.113157686,11.6554307 C0.242900889,11.7902622 0.437515694,11.9250936 0.632130498,11.9250936 C0.761873701,11.9250936 0.891616904,11.8576779 1.02136011,11.7902622 L12.6982484,2.14981273 L24.9589811,11.7902622 C25.2184675,11.9925094 25.6725687,11.9925094 25.8671835,11.6554307 C26.0617983,11.3183521 26.0617983,10.9138577 25.7374403,10.6441948 Z"></path>
                            </g>
                        </g>
                    </g>
                </g>
            </g>
        </g>
    </g>
</svg>