<?xml version="1.0" encoding="UTF-8"?>
<svg width="27px" height="20px" viewBox="0 0 27 20" version="1.1" xmlns="http://www.w3.org/2000/svg" xmlns:xlink="http://www.w3.org/1999/xlink">
    <title>Path</title>
    <g id="Final-Wireframes" stroke="none" stroke-width="1" fill="none" fill-rule="evenodd">
        <g id="Add-Payment-unfilled-" transform="translate(-32.000000, -74.000000)" fill="#3D3D3D" fill-rule="nonzero">
            <g id="Back-Copy" transform="translate(22.000000, 60.000000)">
                <g id="Group">
                    <g id="noun_back_2102859" transform="translate(10.000000, 14.000000)">
                        <path d="M25.8749778,8.84599674 L3.84056987,8.84599674 L10.5424308,1.97016019 C10.9818926,1.5196044 10.9818926,0.788683967 10.5424308,0.338128179 C10.102969,-0.112709393 9.39049156,-0.112709393 8.95157912,0.338128179 L0.329785175,9.18338528 C0.277255752,9.2371688 0.230253957,9.29655258 0.188848416,9.36012769 C0.170480291,9.38830502 0.157914412,9.41884224 0.142224291,9.44821711 C0.122688843,9.48474202 0.101162106,9.51996368 0.0855062414,9.55877801 C0.0702281028,9.59667652 0.0614044977,9.63623049 0.0502463028,9.67529134 C0.0407360966,9.7083293 0.0283075266,9.73992313 0.0216812586,9.77412336 C-0.00722708618,9.92332241 -0.00722708618,10.0769594 0.0216812586,10.2261585 C0.0283075266,10.2603587 0.0407360403,10.2919526 0.0502463028,10.3249905 C0.0614044977,10.3640514 0.0702281028,10.4036053 0.0855062414,10.4415038 C0.10116205,10.4803181 0.122688843,10.5155398 0.142224291,10.5520647 C0.157914468,10.5814396 0.170480291,10.6119768 0.188848416,10.6401542 C0.230253957,10.7037293 0.277255752,10.763113 0.329785175,10.8168966 L8.95157906,19.6618718 C9.17103528,19.8872906 9.45915746,20 9.7470049,20 C10.0348523,20 10.3229745,19.8872906 10.5424307,19.6618718 C10.9818925,19.211316 10.9818925,18.4803956 10.5424307,18.0298398 L3.84060418,11.1542851 L25.8749778,11.1542851 C26.4962669,11.1542851 27,10.6375125 27,10.0001409 C27,9.3627693 26.4962669,8.84599674 25.8749778,8.84599674 Z" id="Path"></path>
                    </g>
                </g>
            </g>
        </g>
    </g>
</svg>