<?xml version="1.0" encoding="UTF-8"?>
<svg width="74px" height="56px" viewBox="0 0 74 56" version="1.1" xmlns="http://www.w3.org/2000/svg" xmlns:xlink="http://www.w3.org/1999/xlink">
    <title>Shape</title>
    <defs>
        <filter x="-3.8%" y="-14.1%" width="107.6%" height="128.1%" filterUnits="objectBoundingBox" id="filter-1">
            <feOffset dx="0" dy="2" in="SourceAlpha" result="shadowOffsetOuter1"></feOffset>
            <feGaussianBlur stdDeviation="2.5" in="shadowOffsetOuter1" result="shadowBlurOuter1"></feGaussianBlur>
            <feColorMatrix values="0 0 0 0 0   0 0 0 0 0   0 0 0 0 0  0 0 0 0.5 0" type="matrix" in="shadowBlurOuter1" result="shadowMatrixOuter1"></feColorMatrix>
            <feMerge>
                <feMergeNode in="shadowMatrixOuter1"></feMergeNode>
                <feMergeNode in="SourceGraphic"></feMergeNode>
            </feMerge>
        </filter>
    </defs>
    <g id="Final-Wireframes" stroke="none" stroke-width="1" fill="none" fill-rule="evenodd">
        <g id="Homepage--Your-Items" transform="translate(-276.000000, -268.000000)" fill="#FFFFFF" fill-rule="nonzero">
            <g id="CTA-Scan" filter="url(#filter-1)" transform="translate(31.000000, 245.000000)">
                <g id="Shop-&amp;-Scan-CTA-Button">
                    <g id="Group-8" transform="translate(39.000000, 12.000000)">
                        <g id="Barcode-Copy" transform="translate(211.000000, 14.000000)">
                            <g id="Group">
                                <path d="M64,0.248647164 L64,1.62178149 L64,12.6068561 L61.2173913,12.6068561 L61.2173913,2.99491582 L51.4782609,2.99491582 L51.4782609,0.248647164 L62.6086957,0.248647164 L64,0.248647164 Z M12.5217391,0.248647164 L12.5217391,2.99491582 L2.78260863,2.99491582 L2.78260863,12.6068561 L-6.9565217e-08,12.6068561 L-6.9565217e-08,1.62178149 L-6.9565217e-08,0.248647164 L1.39130428,0.248647164 L12.5217391,0.248647164 Z M58.4347826,5.74118448 L58.4347826,40.0695701 L54.2608696,40.0695701 L54.2608696,5.74118448 L58.4347826,5.74118448 Z M52.8695652,5.74118448 L52.8695652,40.0695701 L51.4782609,40.0695701 L51.4782609,5.74118448 L52.8695652,5.74118448 Z M49.3913043,5.74118448 L49.3913043,40.0695701 L42.4347826,40.0695701 L42.4347826,5.74118448 L49.3913043,5.74118448 Z M39.6521739,5.74118448 L39.6521739,40.0695701 L38.2608696,40.0695701 L38.2608696,5.74118448 L39.6521739,5.74118448 Z M36.8695652,5.74118448 L36.8695652,40.0695701 L35.4782609,40.0695701 L35.4782609,5.74118448 L36.8695652,5.74118448 Z M34.0869565,5.74118448 L34.0869565,40.0695701 L28.5217391,40.0695701 L28.5217391,5.74118448 L34.0869565,5.74118448 Z M27.1304348,5.74118448 L27.1304348,40.0695701 L25.7391304,40.0695701 L25.7391304,5.74118448 L27.1304348,5.74118448 Z M24.3478261,5.74118448 L24.3478261,40.0695701 L20.173913,40.0695701 L20.173913,5.74118448 L24.3478261,5.74118448 Z M18.7826087,5.74118448 L18.7826087,40.0695701 L17.3913043,40.0695701 L17.3913043,5.74118448 L18.7826087,5.74118448 Z M16,5.74118448 L16,40.0695701 L13.2173913,40.0695701 L13.2173913,5.74118448 L16,5.74118448 Z M11.1304348,5.74118448 L11.1304348,40.0695701 L9.73913043,40.0695701 L9.73913043,5.74118448 L11.1304348,5.74118448 Z M8.34782609,5.74118448 L8.34782609,40.0695701 L5.56521739,40.0695701 L5.56521739,5.74118448 L8.34782609,5.74118448 Z M64,33.2038985 L64,44.1889731 L64,45.5621075 L62.6086957,45.5621075 L51.4782609,45.5621075 L51.4782609,42.8158388 L61.2173913,42.8158388 L61.2173913,33.2038985 L64,33.2038985 Z M2.78260863,33.2038985 L2.78260863,42.8158388 L12.5217391,42.8158388 L12.5217391,45.5621075 L1.39130428,45.5621075 L-6.95652134e-08,45.5621075 L-6.95652134e-08,44.1889731 L-6.95652134e-08,33.2038985 L2.78260863,33.2038985 Z" id="Shape"></path>
                            </g>
                        </g>
                    </g>
                </g>
            </g>
        </g>
    </g>
</svg>