<?xml version="1.0" encoding="UTF-8"?>
<svg width="30px" height="33px" viewBox="0 0 30 33" version="1.1" xmlns="http://www.w3.org/2000/svg" xmlns:xlink="http://www.w3.org/1999/xlink">
    <title>Group</title>
    <g id="Final-Wireframes" stroke="none" stroke-width="1" fill="none" fill-rule="evenodd">
        <g id="Scan-mini-PDP" transform="translate(-33.000000, -817.000000)" fill="#272727" fill-rule="nonzero">
            <g id="Bottom-Draw" transform="translate(0.000000, 576.000000)">
                <g id="Trash-Copy" transform="translate(33.000000, 241.000000)">
                    <g id="noun_Trash_2475011">
                        <g id="Group">
                            <path d="M4.69852941,29.8172368 C4.81764706,31.6018421 6.33088235,33 8.14852941,33 L21.8514706,33 C23.6691176,33 25.1823529,31.6018421 25.3014706,29.8172368 L26.8588235,6.07894737 L30,6.07894737 L30,4.34210526 L21.1764706,4.34210526 L21.1764706,2.48802632 C21.1764706,1.11592105 20.0426471,0 18.6485294,0 L11.3514706,0 C9.95735294,0 8.82352941,1.11592105 8.82352941,2.48802632 L8.82352941,4.34210526 L0,4.34210526 L0,6.07894737 L3.14117647,6.07894737 L4.69852941,29.8172368 Z M10.5882353,2.48802632 C10.5882353,2.07552632 10.9323529,1.73684211 11.3514706,1.73684211 L18.6485294,1.73684211 C19.0676471,1.73684211 19.4117647,2.07552632 19.4117647,2.48802632 L19.4117647,4.34210526 L10.5882353,4.34210526 L10.5882353,2.48802632 Z M8.82352941,6.07894737 L21.1764706,6.07894737 L25.0897059,6.07894737 L23.5411765,29.7043421 C23.4838235,30.5771053 22.7382353,31.2631579 21.8514706,31.2631579 L8.14852941,31.2631579 C7.25735294,31.2631579 6.51617647,30.5771053 6.45882353,29.7043421 L4.91029412,6.07894737 L8.82352941,6.07894737 Z" id="Shape"></path>
                            <rect id="Rectangle" x="14.1176471" y="10.8552632" width="1.76470588" height="16.0657895"></rect>
                            <rect id="Rectangle" x="9.26470588" y="10.8552632" width="1.76470588" height="16.0657895"></rect>
                            <rect id="Rectangle" x="18.9705882" y="10.8552632" width="1.76470588" height="16.0657895"></rect>
                        </g>
                    </g>
                </g>
            </g>
        </g>
    </g>
</svg>