<?xml version="1.0" encoding="UTF-8"?>
<svg width="33px" height="36px" viewBox="0 0 33 36" version="1.1" xmlns="http://www.w3.org/2000/svg" xmlns:xlink="http://www.w3.org/1999/xlink">
    <title>Shape</title>
    <defs>
        <path d="M0.81531337,0.126475556 C0.365068804,0.126475556 9.59782609e-05,0.595515556 9.59782609e-05,1.1740981 C9.59782609e-05,1.75268063 0.365068804,2.22171714 0.81531337,2.22171714 L4.06770462,2.22171714 C5.41694375,6.51607873 6.74593832,10.818301 8.08433505,15.1205302 L6.85303071,18.9290444 C6.74987853,19.2465778 6.77890027,19.6294476 6.92778614,19.9154127 C7.07669918,20.2013778 7.34104701,20.3818825 7.60879158,20.3805379 L21.1957481,20.3805379 C21.6264274,20.3881333 22.0225687,19.8863587 22.0225687,19.3328317 C22.0225687,18.7793048 21.6264274,18.2773905 21.1957481,18.2852127 L8.83161766,18.2852127 L9.53645462,16.1244984 L22.6223785,14.782254 C22.9649057,14.7476825 23.2749601,14.4047619 23.3526774,13.9747143 L24.9831122,4.89532476 C25.0897427,4.28378413 24.6725416,3.61649619 24.1848785,3.61853905 L6.25857418,3.61853905 L5.37542201,0.78123746 C5.2544981,0.397173333 4.94205245,0.126475556 4.61966114,0.126475556 L0.81531337,0.126475556 Z M6.91246005,5.71378063 L23.1573785,5.71378063 L21.8920796,12.7633803 L9.50248723,14.0292603 L6.91246005,5.71378063 Z M10.3261829,21.0788635 C8.83506875,21.0788635 7.60879158,22.6546921 7.60879158,24.570927 C7.60879158,26.487127 8.83506875,28.0629905 10.3261829,28.0629905 C11.817297,28.0629905 13.0435742,26.487127 13.0435742,24.570927 C13.0435742,22.654727 11.817297,21.0788635 10.3261829,21.0788635 Z M18.4783568,21.0788635 C16.9872427,21.0788635 15.7609655,22.654727 15.7609655,24.570927 C15.7609655,26.487127 16.9872427,28.0629905 18.4783568,28.0629905 C19.9694709,28.0629905 21.1957481,26.487127 21.1957481,24.570927 C21.1957481,22.6546921 19.9694709,21.0788635 18.4783568,21.0788635 Z M10.3261829,23.1741016 C10.9361557,23.1741016 11.4131394,23.7870635 11.4131394,24.570927 C11.4131394,25.3547905 10.9361557,25.9677524 10.3261829,25.9677524 C9.7162644,25.9677524 9.23922636,25.3547556 9.23922636,24.570927 C9.23922636,23.7870984 9.7162644,23.1741016 10.3261829,23.1741016 Z M18.4783568,23.1741016 C19.0882753,23.1741016 19.5653133,23.7870984 19.5653133,24.570927 C19.5653133,25.3547556 19.0882753,25.9677524 18.4783568,25.9677524 C17.868384,25.9677524 17.3914003,25.3547905 17.3914003,24.570927 C17.3914003,23.7870635 17.868384,23.1741016 18.4783568,23.1741016 Z" id="path-1"></path>
        <filter x="-28.0%" y="-17.9%" width="156.0%" height="150.1%" filterUnits="objectBoundingBox" id="filter-2">
            <feOffset dx="0" dy="2" in="SourceAlpha" result="shadowOffsetOuter1"></feOffset>
            <feGaussianBlur stdDeviation="2" in="shadowOffsetOuter1" result="shadowBlurOuter1"></feGaussianBlur>
            <feColorMatrix values="0 0 0 0 0   0 0 0 0 0   0 0 0 0 0  0 0 0 0.5 0" type="matrix" in="shadowBlurOuter1"></feColorMatrix>
        </filter>
    </defs>
    <g id="Final-Wireframes" stroke="none" stroke-width="1" fill="none" fill-rule="evenodd">
        <g id="Homepage-" transform="translate(-316.000000, -73.000000)" fill-rule="nonzero">
            <g id="Header" transform="translate(31.000000, 60.000000)">
                <g id="Group-7">
                    <g id="Cart-button-Copy-2" transform="translate(277.000000, 6.000000)">
                        <g id="Cart" transform="translate(12.000000, 9.000000)">
                            <g id="noun_cart_1570216">
                                <g>
                                    <g id="Group">
                                        <g id="Shape">
                                            <use fill="black" fill-opacity="1" filter="url(#filter-2)" xlink:href="#path-1"></use>
                                            <use fill="#FFFFFF" xlink:href="#path-1"></use>
                                        </g>
                                    </g>
                                </g>
                            </g>
                        </g>
                    </g>
                </g>
            </g>
        </g>
    </g>
</svg>