<?xml version="1.0" encoding="UTF-8"?>
<svg width="25px" height="25px" viewBox="0 0 25 25" version="1.1" xmlns="http://www.w3.org/2000/svg" xmlns:xlink="http://www.w3.org/1999/xlink">
    <title>Shape</title>
    <g id="Page-1" stroke="none" stroke-width="1" fill="none" fill-rule="evenodd">
        <g id="Homepage--Your-Items" transform="translate(-242.000000, -838.000000)" fill="#3A3939" fill-rule="nonzero">
            <g id="Bottom-Nav-Copy" transform="translate(0.000000, 820.000000)">
                <g id="Bottom-Nav" transform="translate(24.000000, 8.000000)">
                    <g id="Group-5" transform="translate(200.000000, 0.000000)">
                        <g id="Explore" transform="translate(1.000000, 10.000000)">
                            <path d="M17.0990709,24.1827703 L17.815625,24.8993243 C17.8791385,24.9628378 17.9646115,24.9983108 18.0544764,24.9983108 C18.1443412,24.9983108 18.230152,24.9628378 18.2933277,24.8993243 L25.7629223,17.4293919 C27.5436655,18.9304054 29.7882601,19.7533784 32.1203547,19.7533784 C37.5666385,19.7533784 41.9977196,15.322973 41.9977196,9.87702703 C41.9977196,4.43074324 37.5666385,1.37667655e-12 32.1203547,1.37667655e-12 C26.6740709,1.37667655e-12 22.2433277,4.43108108 22.2433277,9.8777027 C22.2433277,12.210473 23.0669764,14.4554054 24.5686655,16.235473 L17.0990709,23.7054054 C16.9669764,23.8371622 16.9669764,24.0510135 17.0990709,24.1827703 Z M23.9325169,9.87804054 C23.9325169,5.36317568 27.6054899,1.68986486 32.1203547,1.68986486 C36.6352196,1.68986486 40.3085304,5.36317568 40.3085304,9.87804054 C40.3085304,14.3925676 36.6352196,18.0655405 32.1203547,18.0655405 C27.6054899,18.0655405 23.9325169,14.3925676 23.9325169,9.87804054 Z" id="Shape"></path>
                        </g>
                    </g>
                </g>
            </g>
        </g>
    </g>
</svg>