<?xml version="1.0" encoding="UTF-8"?>
<svg width="26px" height="25px" viewBox="0 0 26 25" version="1.1" xmlns="http://www.w3.org/2000/svg" xmlns:xlink="http://www.w3.org/1999/xlink">
    <title>Shape</title>
    <g id="Page-1" stroke="none" stroke-width="1" fill="none" fill-rule="evenodd">
        <g id="Homepage--Your-Items" transform="translate(-141.000000, -838.000000)" fill="#3A3939" fill-rule="nonzero">
            <g id="Bottom-Nav-Copy" transform="translate(0.000000, 820.000000)">
                <g id="Bottom-Nav" transform="translate(24.000000, 8.000000)">
                    <g id="Group-4" transform="translate(100.000000, 0.000000)">
                        <g id="Group-3" transform="translate(12.000000, 10.000000)">
                            <g id="Group" transform="translate(5.000000, 0.000000)">
                                <path d="M1.36842105,1.31578947 L1.36842105,5.92105263 C1.36842105,6.28439786 1.06208956,6.57894737 0.684210526,6.57894737 C0.306331494,6.57894737 0,6.28439786 0,5.92105263 L0,0.657894737 C0,0.294549513 0.306331494,0 0.684210526,0 L6.15789474,0 C6.53577377,0 6.84210526,0.294549513 6.84210526,0.657894737 C6.84210526,1.02123996 6.53577377,1.31578947 6.15789474,1.31578947 L1.36842105,1.31578947 Z M24.6315789,1.31578947 L19.8421053,1.31578947 C19.4642262,1.31578947 19.1578947,1.02123996 19.1578947,0.657894737 C19.1578947,0.294549513 19.4642262,0 19.8421053,0 L25.3157895,0 C25.6936685,0 26,0.294549513 26,0.657894737 L26,5.92105263 C26,6.28439786 25.6936685,6.57894737 25.3157895,6.57894737 C24.9379104,6.57894737 24.6315789,6.28439786 24.6315789,5.92105263 L24.6315789,1.31578947 Z M1.36842105,23.6842105 L6.15789474,23.6842105 C6.53577377,23.6842105 6.84210526,23.97876 6.84210526,24.3421053 C6.84210526,24.7054505 6.53577377,25 6.15789474,25 L0.684210526,25 C0.306331494,25 0,24.7054505 0,24.3421053 L0,19.0789474 C0,18.7156021 0.306331494,18.4210526 0.684210526,18.4210526 C1.06208956,18.4210526 1.36842105,18.7156021 1.36842105,19.0789474 L1.36842105,23.6842105 Z M24.6315789,23.6842105 L24.6315789,19.0789474 C24.6315789,18.7156021 24.9379104,18.4210526 25.3157895,18.4210526 C25.6936685,18.4210526 26,18.7156021 26,19.0789474 L26,24.3421053 C26,24.7054505 25.6936685,25 25.3157895,25 L19.8421053,25 C19.4642262,25 19.1578947,24.7054505 19.1578947,24.3421053 C19.1578947,23.97876 19.4642262,23.6842105 19.8421053,23.6842105 L24.6315789,23.6842105 Z M0.684210526,13.1578947 C0.306331494,13.1578947 0,12.8633453 0,12.5 C0,12.1366547 0.306331494,11.8421053 0.684210526,11.8421053 L25.3157895,11.8421053 C25.6936685,11.8421053 26,12.1366547 26,12.5 C26,12.8633453 25.6936685,13.1578947 25.3157895,13.1578947 L0.684210526,13.1578947 Z" id="Shape"></path>
                            </g>
                        </g>
                    </g>
                </g>
            </g>
        </g>
    </g>
</svg>